<?xml version="1.0" encoding="UTF-8"?>
<svg version="1.1" xmlns="http://www.w3.org/2000/svg" width="500" height="500">
<path d="M0 0 C9.61113094 7.35609213 15.37456501 16.9724523 17.33984375 29.03125 C18.27287385 40.16213541 16.19187032 50.34454494 9.546875 59.44921875 C3.90685579 66.04567479 3.90685579 66.04567479 0.29711914 67.76904297 C-2.48611144 69.17650809 -4.35194077 70.35105445 -6.4375 72.6875 C-7.71126377 77.81069197 -7.60867349 82.82795891 -7.5 88.0625 C-7.50307764 89.48048349 -7.51019972 90.89846432 -7.52148438 92.31640625 C-7.54024521 95.77464449 -7.5038613 99.22972714 -7.4375 102.6875 C-5.85344312 102.2454772 -4.27188611 101.7944906 -2.69140625 101.33984375 C-1.8104126 101.08968506 -0.92941895 100.83952637 -0.02172852 100.58178711 C13.12812453 96.03120499 20.698059 80.15361895 27.375 68.9375 C52.60885822 27.14990759 52.60885822 27.14990759 75.69213867 21.13232422 C89.08996533 19.05604284 102.91255782 20.95300624 116.16427612 23.1383667 C120.62956816 23.87080339 125.10383981 24.54380491 129.578125 25.21875 C130.45129868 25.35107025 131.32447235 25.4833905 132.22410583 25.61972046 C156.65422269 29.27614181 181.57121667 30.1375945 206.125 27.22265625 C206.84042969 27.13773926 207.55585938 27.05282227 208.29296875 26.96533203 C209.94273888 26.76337007 211.59102562 26.54917456 213.23828125 26.32763672 C214.12902344 26.21822754 215.01976562 26.10881836 215.9375 25.99609375 C216.74960937 25.88966553 217.56171875 25.7832373 218.3984375 25.67358398 C220.5625 25.6875 220.5625 25.6875 223.5625 27.6875 C224.93123696 37.07312488 219.64881312 45.17217466 214.2734375 52.44140625 C213.70882813 53.18261719 213.14421875 53.92382812 212.5625 54.6875 C211.4178125 56.2653125 211.4178125 56.2653125 210.25 57.875 C196.93542218 71.80886051 178.2060347 76.27875483 159.625 77.25 C158.84576172 77.29318359 158.06652344 77.33636719 157.26367188 77.38085938 C155.36342883 77.48578077 153.46298331 77.5870245 151.5625 77.6875 C166.55525081 86.1105999 180.55076808 91.53357636 197.59472656 94.25708008 C198.45549805 94.40169678 199.31626953 94.54631348 200.203125 94.6953125 C201.35603027 94.87537842 201.35603027 94.87537842 202.53222656 95.05908203 C204.94955868 95.80730388 206.01487644 96.70357178 207.5625 98.6875 C207.6833244 103.03717851 205.34415847 105.73318358 202.546875 108.796875 C188.64124617 122.04554499 171.96013025 128.29722843 152.9375 128.125 C151.81682129 128.12177734 150.69614258 128.11855469 149.54150391 128.11523438 C139.83344921 127.95428906 130.86432877 126.37950212 121.5625 123.6875 C123.85993655 126.38698795 126.20100827 129.04390328 128.5625 131.6875 C129.11808594 132.32300781 129.67367188 132.95851562 130.24609375 133.61328125 C135.74564672 139.52928144 142.27059383 143.81477895 148.953125 148.26953125 C156.42957298 153.26656444 156.42957298 153.26656444 157.3125 156.0625 C156.25600896 159.76021863 154.36167548 160.60319561 151.08203125 162.4296875 C138.92082546 168.50086311 126.98125024 171.0914372 113.5625 172.6875 C113.88734375 174.18023437 113.88734375 174.18023437 114.21875 175.703125 C118.61925407 197.22018047 118.20904217 217.42337071 106.5625 236.6875 C94.17742304 254.51417492 74.73714797 265.58771099 54.5625 272.6875 C57.6757497 275.28187475 60.89849152 277.60547457 64.25 279.875 C78.33371533 289.74617548 87.76864609 301.18387276 91.3125 318.3125 C92.58037779 335.42885023 88.83757055 349.60508165 77.73828125 362.8671875 C64.22492539 377.3329132 44.1400196 388.28804595 25.5625 394.6875 C25.92601562 395.11160156 26.28953125 395.53570312 26.6640625 395.97265625 C27.72739377 397.2132094 28.78700165 398.4569595 29.84375 399.703125 C30.92044151 400.94621429 32.02152404 402.16902522 33.15625 403.359375 C40.44327552 411.16690234 42.9632841 420.86804659 42.8359375 431.3359375 C41.88999382 442.93050431 36.6028318 453.2424339 28.9375 461.875 C26.5625 463.6875 26.5625 463.6875 23.75 464 C23.028125 463.896875 22.30625 463.79375 21.5625 463.6875 C20.61850767 459.81856175 20.60002847 456.46452551 20.8125 452.5 C20.85608519 442.83498426 16.70708889 435.99548824 10.18554688 429.06347656 C7.09026627 426.25974696 3.81280111 424.11215321 0.27734375 421.91015625 C-0.36980591 421.50091919 -1.01695557 421.09168213 -1.68371582 420.67004395 C-3.26520948 419.67093697 -4.85092834 418.67852335 -6.4375 417.6875 C-6.44114563 418.44647583 -6.44479126 419.20545166 -6.44854736 419.98742676 C-6.48653363 427.16669618 -6.54350546 434.34545274 -6.62140274 441.52439117 C-6.66078476 445.21452013 -6.69301814 448.90441378 -6.70849609 452.59472656 C-6.72372464 456.16119583 -6.75827753 459.72701781 -6.80580902 463.29319763 C-6.8277009 465.30478038 -6.8299684 467.31654608 -6.83184814 469.32824707 C-6.94689271 476.56677116 -7.45045029 481.57023183 -11.4375 487.6875 C-16.55257852 492.55306249 -20.8837712 493.04080453 -27.7109375 492.96875 C-32.81624325 492.4421282 -35.43726047 489.79587353 -38.75 486.125 C-41.46353324 482.20545199 -41.56031419 479.21741006 -41.55102539 474.5637207 C-41.55094986 473.30263992 -41.55087433 472.04155914 -41.55079651 470.74226379 C-41.54568989 469.36593588 -41.54047389 467.98960837 -41.53515625 466.61328125 C-41.53329086 465.20509389 -41.53186753 463.79690589 -41.53086853 462.38871765 C-41.52705288 458.6848267 -41.51723072 454.98097505 -41.50616455 451.27709961 C-41.49592997 447.49658744 -41.49136652 443.71606891 -41.48632812 439.93554688 C-41.4756076 432.51951335 -41.4585426 425.10351218 -41.4375 417.6875 C-43.34966047 418.78296732 -45.25933592 419.88277296 -47.16796875 420.984375 C-48.23168701 421.59635742 -49.29540527 422.20833984 -50.39135742 422.83886719 C-58.77898191 427.92912066 -66.28554378 435.36841727 -69.12890625 445.0390625 C-69.53361145 448.51235522 -69.5047269 451.9484241 -69.4375 455.4375 C-69.39186046 457.86095939 -69.39018448 460.26257976 -69.4375 462.6875 C-70.4375 463.6875 -70.4375 463.6875 -72.75390625 463.984375 C-77.14814204 463.49825867 -78.72815458 460.7164046 -81.44140625 457.44921875 C-90.24984732 445.26219755 -92.71466624 433.43809921 -90.4375 418.6875 C-88.15191682 408.93935003 -81.50794053 401.3918341 -73.4375 395.6875 C-74.32308594 395.28660156 -75.20867187 394.88570313 -76.12109375 394.47265625 C-125.10324416 372.10206396 -125.10324416 372.10206396 -136.4375 348.6875 C-141.69965659 334.33684192 -141.89970572 320.35008314 -136.40625 305.9921875 C-129.79099399 291.73362894 -118.11895255 281.95110754 -104.4375 274.6875 C-103.7775 274.6875 -103.1175 274.6875 -102.4375 274.6875 C-102.4375 274.0275 -102.4375 273.3675 -102.4375 272.6875 C-103.23039429 272.45293091 -103.23039429 272.45293091 -104.03930664 272.21362305 C-110.33485445 270.24605049 -116.05002748 267.5763649 -121.875 264.5 C-123.26150757 263.77079346 -123.26150757 263.77079346 -124.67602539 263.02685547 C-131.2585582 259.48971159 -136.89372815 255.71666012 -142.4375 250.6875 C-143.9534375 249.57375 -143.9534375 249.57375 -145.5 248.4375 C-156.35709936 239.17974672 -163.42917266 224.66687872 -165.4375 210.6875 C-165.70983278 206.24602573 -165.71720679 201.82359189 -165.6875 197.375 C-165.69910156 195.65506836 -165.69910156 195.65506836 -165.7109375 193.90039062 C-165.69375472 186.30989887 -164.92566094 179.12915217 -163.4375 171.6875 C-164.448125 171.749375 -165.45875 171.81125 -166.5 171.875 C-179.0891977 171.85267873 -198.22473203 167.90026797 -207.4375 158.6875 C-207.875 156.3125 -207.875 156.3125 -207.4375 153.6875 C-205.26797646 151.51797646 -202.849477 149.96089607 -200.30078125 148.26953125 C-189.95315723 141.25447535 -181.14527813 132.62577814 -172.4375 123.6875 C-174.18546875 124.120625 -174.18546875 124.120625 -175.96875 124.5625 C-199.1140757 129.94313001 -221.55672989 130.26801939 -242.4375 117.6875 C-248.16169527 113.70650867 -255.01360724 108.9379255 -258.4375 102.6875 C-258.3125 99.25 -258.3125 99.25 -257.4375 96.6875 C-252.78722798 95.29360469 -248.22350122 94.23039276 -243.4375 93.375 C-229.34538093 90.6521994 -217.04457846 85.34080404 -204.4375 78.6875 C-203.7775 78.3575 -203.1175 78.0275 -202.4375 77.6875 C-204.01724609 77.63142578 -204.01724609 77.63142578 -205.62890625 77.57421875 C-227.14914425 76.65953325 -247.1365176 72.62090409 -262.6875 56.5625 C-269.3599561 48.69312909 -275.00526442 38.09651436 -274.4375 27.6875 C-272.4375 25.6875 -272.4375 25.6875 -270.5390625 25.640625 C-269.72179687 25.73859375 -268.90453125 25.8365625 -268.0625 25.9375 C-267.0725 26.04449219 -266.0825 26.15148438 -265.0625 26.26171875 C-263.14187029 26.48730996 -261.22125754 26.71304784 -259.30078125 26.93994141 C-224.60150328 30.96806217 -189.49599886 27.7041105 -155.19921875 21.58203125 C-139.348809 18.90504981 -124.69298568 19.53139874 -111.15625 28.6953125 C-96.44980233 39.47158881 -87.82657144 53.84417326 -78.57275391 69.25048828 C-67.12464651 89.34108825 -67.12464651 89.34108825 -48.4375 101.6875 C-46.1077724 102.04516586 -43.77461596 102.38181301 -41.4375 102.6875 C-41.30765678 98.54132641 -41.25138232 94.4022927 -41.26049805 90.25463867 C-41.25355996 88.84717607 -41.22720602 87.43966086 -41.18041992 86.03295898 C-41.03488477 81.4199851 -41.12976881 77.16046517 -42.4375 72.6875 C-45.02632512 70.11982757 -47.40553725 68.6713214 -50.68847656 67.109375 C-58.01291378 63.32096271 -62.65030048 54.21249965 -65.12109375 46.57421875 C-68.15260827 34.8035796 -66.68983177 23.22027948 -60.875 12.5625 C-54.17673901 2.21064211 -44.8687401 -4.03902844 -32.92578125 -6.91796875 C-21.1603135 -8.78345108 -9.95456715 -6.62642851 0 0 Z M-122.8125 145.3125 C-124.92456506 148.39936432 -125.04945145 150.0157913 -124.4375 153.6875 C-123.02083333 156.27083333 -123.02083333 156.27083333 -120.4375 157.6875 C-116.94658522 157.62625588 -114.49284314 157.28113052 -111.4375 155.5625 C-109.77330687 152.44213788 -110.60670898 150.01066407 -111.4375 146.6875 C-112.48124022 144.64298981 -112.48124022 144.64298981 -114.4375 143.6875 C-118.06781776 143.14681438 -119.75964079 143.22370159 -122.8125 145.3125 Z M61.1875 145.3125 C59.36362622 147.63594013 59.36362622 147.63594013 59 150.6875 C59.32753002 153.83377033 59.32753002 153.83377033 61.6875 156.125 C64.47475693 157.93620485 64.47475693 157.93620485 67.6875 157.6875 C70.58439293 156.8800204 70.58439293 156.8800204 72.5 155 C73.96359489 151.81452876 73.55178968 150.00868677 72.5625 146.6875 C71.49904948 144.70720318 71.49904948 144.70720318 69.5625 143.6875 C65.93218224 143.14681438 64.24035921 143.22370159 61.1875 145.3125 Z M-47.75 156.8125 C-54.93944526 161.94484965 -62.77351912 165.85229251 -71.375 167.9375 C-76.28665251 169.43778659 -77.61838316 172.7913374 -79.94140625 177.12890625 C-85.37416883 186.41992319 -96.96495512 191.79222443 -106.97265625 194.72265625 C-109.04219129 195.21352332 -111.12012032 195.67126543 -113.20703125 196.08203125 C-114.31111328 196.38173828 -114.31111328 196.38173828 -115.4375 196.6875 C-117.43496279 200.68242559 -116.9332132 205.3441082 -116.4375 209.6875 C-112.41275937 221.18675895 -99.75334164 228.39238151 -89.40625 233.484375 C-75.66140426 239.82901376 -56.78711265 247.6875 -41.4375 247.6875 C-41.4375 216.6675 -41.4375 185.6475 -41.4375 153.6875 C-44.30891726 153.6875 -45.47086315 155.08915921 -47.75 156.8125 Z M-7.4375 154.6875 C-7.4375 185.3775 -7.4375 216.0675 -7.4375 247.6875 C15.6781651 243.4846518 48.24622738 236.35041005 63.484375 216.29296875 C67.16225639 210.81612363 68.52558182 206.25396698 67.5625 199.6875 C64.99899022 195.84223534 63.47487049 195.8964084 59.0625 194.8125 C47.86061026 191.76055657 39.49915334 187.34182944 31.5625 178.6875 C30.69710986 177.14252408 29.86189296 175.58013341 29.0625 174 C25.71720542 168.48504294 20.39592868 167.56864585 14.53491211 165.86352539 C6.27464519 163.44644187 -0.28725141 159.45433239 -7.4375 154.6875 Z M-91.8125 316.4375 C-96.16359812 321.2306883 -96.95282149 325.43712144 -96.80859375 331.80859375 C-95.87495047 339.05170007 -91.52304713 344.46358543 -85.95703125 348.9453125 C-73.63586464 357.46506492 -57.32025324 365.46864579 -42.4375 367.6875 C-41.12002989 366.595317 -41.12002989 366.595317 -41.31724548 363.90977478 C-41.31946609 362.66845291 -41.32168671 361.42713104 -41.32397461 360.14819336 C-41.32382858 359.46529739 -41.32368256 358.78240143 -41.3235321 358.07881165 C-41.32423124 355.81162386 -41.3320236 353.54451726 -41.33984375 351.27734375 C-41.34170793 349.70935613 -41.34313183 348.14136793 -41.34413147 346.57337952 C-41.34795666 342.43873497 -41.35778694 338.30412534 -41.36883545 334.16949463 C-41.37904956 329.95349602 -41.38362909 325.73749178 -41.38867188 321.52148438 C-41.39940921 313.24347353 -41.41648564 304.9654911 -41.4375 296.6875 C-57.00522905 296.6875 -80.31339201 305.52033067 -91.8125 316.4375 Z M-7.4375 296.6875 C-7.4375 320.1175 -7.4375 343.5475 -7.4375 367.6875 C11.28027224 362.58265303 33.99952255 355.58120604 45.5625 338.6875 C47.81325116 333.77677019 48.60983075 328.91729243 46.91015625 323.67578125 C42.59493622 313.952646 33.96436666 309.72625297 24.5625 305.6875 C14.08644723 301.66721279 3.53371867 299.26896322 -7.4375 296.6875 Z " fill="#1E4EDC" transform="translate(275.4375,7.3125)"/>
<path d="M0 0 C4.64905344 3.38235482 6.85603686 6.34178234 8 12 C9.27412671 24.35281386 7.32699843 37.96753178 -0.328125 48.0859375 C-9.66594955 58.77643757 -21.88652971 64.73340651 -36 66 C-36.78738321 76.19675287 -36.78738321 76.19675287 -32.64453125 85.1796875 C-32.10183594 85.78039062 -31.55914062 86.38109375 -31 87 C-30.42636719 87.64195312 -29.85273438 88.28390625 -29.26171875 88.9453125 C-16.36309513 101.71870677 2.11045556 106.88567574 19 112 C19.96679688 112.29567871 20.93359375 112.59135742 21.9296875 112.89599609 C43.05089985 119.30830937 58.75938692 120.88662277 80.1875 114.8125 C81.66592568 114.39979027 83.14435998 113.98711145 84.62280273 113.57446289 C118.04239214 104.7624918 118.04239214 104.7624918 143.625 83.0625 C146.19651088 78.37583087 146.89779809 74.27314319 146 69 C145.67 68.34 145.34 67.68 145 67 C142.87587093 66.32346932 140.72369009 65.73419502 138.5625 65.1875 C124.03899479 61.23945218 114.20894457 53.98161556 105.375 41.75 C102.00666427 35.01332853 101.65759929 27.79037676 101.6875 20.375 C101.67138672 19.56804687 101.65527344 18.76109375 101.63867188 17.9296875 C101.63369166 11.79406302 102.41254143 6.77678481 106.76171875 2.109375 C107.39722656 1.66078125 108.03273438 1.2121875 108.6875 0.75 C109.31011719 0.29109375 109.93273437 -0.1678125 110.57421875 -0.640625 C117.72190664 -4.64609261 123.6759954 -5.49604746 131.75 -5.375 C133.21252197 -5.35977295 133.21252197 -5.35977295 134.70458984 -5.34423828 C151.18347897 -4.98976493 164.61234237 0.54735267 176.3125 12.1640625 C191.70004175 28.40149754 196.56455066 50.01972055 196.34960938 71.82592773 C195.82909959 89.90485035 188.69944197 105.12093367 176 118 C164.20563565 128.90360117 149.08099294 136.69275162 134 142 C137.1132497 144.59437475 140.33599152 146.91797457 143.6875 149.1875 C157.77121533 159.05867548 167.20614609 170.49637276 170.75 187.625 C172.01787779 204.74135023 168.27507055 218.91758165 157.17578125 232.1796875 C143.66242539 246.6454132 123.5775196 257.60054595 105 264 C105.36351562 264.42410156 105.72703125 264.84820312 106.1015625 265.28515625 C107.16489377 266.5257094 108.22450165 267.7694595 109.28125 269.015625 C110.35794151 270.25871429 111.45902404 271.48152522 112.59375 272.671875 C119.88077552 280.47940234 122.4007841 290.18054659 122.2734375 300.6484375 C121.32749382 312.24300431 116.0403318 322.5549339 108.375 331.1875 C106 333 106 333 103.1875 333.3125 C102.465625 333.209375 101.74375 333.10625 101 333 C100.05600767 329.13106175 100.03752847 325.77702551 100.25 321.8125 C100.29358519 312.14748426 96.14458889 305.30798824 89.62304688 298.37597656 C86.52776627 295.57224696 83.25030111 293.42465321 79.71484375 291.22265625 C79.06769409 290.81341919 78.42054443 290.40418213 77.75378418 289.98254395 C76.17229052 288.98343697 74.58657166 287.99102335 73 287 C72.99453156 288.13846375 72.99453156 288.13846375 72.98895264 289.29992676 C72.95096637 296.47919618 72.89399454 303.65795274 72.81609726 310.83689117 C72.77671524 314.52702013 72.74448186 318.21691378 72.72900391 321.90722656 C72.71377536 325.47369583 72.67922247 329.03951781 72.63169098 332.60569763 C72.6097991 334.61728038 72.6075316 336.62904608 72.60565186 338.64074707 C72.49060729 345.87927116 71.98704971 350.88273183 68 357 C62.88492148 361.86556249 58.5537288 362.35330453 51.7265625 362.28125 C46.62125675 361.7546282 44.00023953 359.10837353 40.6875 355.4375 C37.97396676 351.51795199 37.87718581 348.52991006 37.88647461 343.8762207 C37.88658791 341.98459953 37.88658791 341.98459953 37.88670349 340.05476379 C37.89181011 338.67843588 37.89702611 337.30210837 37.90234375 335.92578125 C37.90420914 334.51759389 37.90563247 333.10940589 37.90663147 331.70121765 C37.91044712 327.9973267 37.92026928 324.29347505 37.93133545 320.58959961 C37.94157003 316.80908744 37.94613348 313.02856891 37.95117188 309.24804688 C37.9618924 301.83201335 37.9789574 294.41601218 38 287 C36.08783953 288.09546732 34.17816408 289.19527296 32.26953125 290.296875 C31.20581299 290.90885742 30.14209473 291.52083984 29.04614258 292.15136719 C20.65851809 297.24162066 13.15195622 304.68091727 10.30859375 314.3515625 C9.90388855 317.82485522 9.9327731 321.2609241 10 324.75 C10.04563954 327.17345939 10.04731552 329.57507976 10 332 C9 333 9 333 6.68359375 333.296875 C2.28935796 332.81075867 0.70934542 330.0289046 -2.00390625 326.76171875 C-10.81234732 314.57469755 -13.27716624 302.75059921 -11 288 C-8.71441682 278.25185003 -2.07044053 270.7043341 6 265 C5.11441406 264.59910156 4.22882813 264.19820313 3.31640625 263.78515625 C-45.66574416 241.41456396 -45.66574416 241.41456396 -57 218 C-62.26215659 203.64934192 -62.46220572 189.66258314 -56.96875 175.3046875 C-50.35349399 161.04612894 -38.68145255 151.26360754 -25 144 C-24.34 144 -23.68 144 -23 144 C-23 143.34 -23 142.68 -23 142 C-23.79289429 141.76543091 -23.79289429 141.76543091 -24.60180664 141.52612305 C-30.89735445 139.55855049 -36.61252748 136.8888649 -42.4375 133.8125 C-43.36183838 133.3263623 -44.28617676 132.84022461 -45.23852539 132.33935547 C-51.8210582 128.80221159 -57.45622815 125.02916012 -63 120 C-64.010625 119.2575 -65.02125 118.515 -66.0625 117.75 C-76.9516621 108.4649071 -83.93115476 93.99746537 -86 80 C-87.04086163 65.74633205 -87.11871218 51.48262097 -82 38 C-81.62617187 36.94039062 -81.25234375 35.88078125 -80.8671875 34.7890625 C-78.19572399 27.7654134 -74.57034269 21.93717415 -70 16 C-69.2575 14.96875 -68.515 13.9375 -67.75 12.875 C-51.7699463 -3.83141978 -20.92442506 -13.27425964 0 0 Z M-43.375 14.625 C-45.48706506 17.71186432 -45.61195145 19.3282913 -45 23 C-43.58333333 25.58333333 -43.58333333 25.58333333 -41 27 C-37.50908522 26.93875588 -35.05534314 26.59363052 -32 24.875 C-30.33580687 21.75463788 -31.16920898 19.32316407 -32 16 C-33.04374022 13.95548981 -33.04374022 13.95548981 -35 13 C-38.63031776 12.45931438 -40.32214079 12.53620159 -43.375 14.625 Z M140.625 14.625 C138.80112622 16.94844013 138.80112622 16.94844013 138.4375 20 C138.76503002 23.14627033 138.76503002 23.14627033 141.125 25.4375 C143.91225693 27.24870485 143.91225693 27.24870485 147.125 27 C150.02189293 26.1925204 150.02189293 26.1925204 151.9375 24.3125 C153.40109489 21.12702876 152.98928968 19.32118677 152 16 C150.93654948 14.01970318 150.93654948 14.01970318 149 13 C145.36968224 12.45931438 143.67785921 12.53620159 140.625 14.625 Z M-12.375 185.75 C-16.72609812 190.5431883 -17.51532149 194.74962144 -17.37109375 201.12109375 C-16.43745047 208.36420007 -12.08554713 213.77608543 -6.51953125 218.2578125 C5.80163536 226.77756492 22.11724676 234.78114579 37 237 C38.31747011 235.907817 38.31747011 235.907817 38.12025452 233.22227478 C38.11803391 231.98095291 38.11581329 230.73963104 38.11352539 229.46069336 C38.11367142 228.77779739 38.11381744 228.09490143 38.1139679 227.39131165 C38.11326876 225.12412386 38.1054764 222.85701726 38.09765625 220.58984375 C38.09579207 219.02185613 38.09436817 217.45386793 38.09336853 215.88587952 C38.08954334 211.75123497 38.07971306 207.61662534 38.06866455 203.48199463 C38.05845044 199.26599602 38.05387091 195.04999178 38.04882812 190.83398438 C38.03809079 182.55597353 38.02101436 174.2779911 38 166 C22.43227095 166 -0.87589201 174.83283067 -12.375 185.75 Z M72 166 C72 189.43 72 212.86 72 237 C90.71777224 231.89515303 113.43702255 224.89370604 125 208 C127.25075116 203.08927019 128.04733075 198.22979243 126.34765625 192.98828125 C122.03243622 183.265146 113.40186666 179.03875297 104 175 C93.52394723 170.97971279 82.97121867 168.58146322 72 166 Z " fill="#32CFFC" transform="translate(196,138)"/>
<path d="M0 0 C4.64905344 3.38235482 6.85603686 6.34178234 8 12 C9.27412671 24.35281386 7.32699843 37.96753178 -0.328125 48.0859375 C-9.66594955 58.77643757 -21.88652971 64.73340651 -36 66 C-36.78738321 76.19675287 -36.78738321 76.19675287 -32.64453125 85.1796875 C-32.10183594 85.78039062 -31.55914062 86.38109375 -31 87 C-30.42636719 87.64195312 -29.85273438 88.28390625 -29.26171875 88.9453125 C-16.36309513 101.71870677 2.11045556 106.88567574 19 112 C19.96679688 112.29567871 20.93359375 112.59135742 21.9296875 112.89599609 C31.21348074 115.71451757 40.35684632 118.43216821 50.015625 119.578125 C50.67046875 119.71734375 51.3253125 119.8565625 52 120 C52.33 120.66 52.66 121.32 53 122 C52.17314697 122.13462646 52.17314697 122.13462646 51.32958984 122.27197266 C36.93403826 124.65490977 23.00380631 127.91857601 9 132 C7.75347656 132.350625 6.50695312 132.70125 5.22265625 133.0625 C-2.8241102 135.40337751 -10.36723201 138.56697092 -18 142 C-15.3382776 143.39389807 -12.73751551 144.49361391 -9.875 145.40234375 C-9.0917334 145.65145508 -8.3084668 145.90056641 -7.50146484 146.15722656 C-6.67598145 146.4147168 -5.85049805 146.67220703 -5 146.9375 C-3.72503662 147.33727051 -3.72503662 147.33727051 -2.42431641 147.74511719 C10.87620219 151.86981777 24.46561516 154.67400417 38.0625 157.625 C39.11888672 157.85445312 40.17527344 158.08390625 41.26367188 158.3203125 C43.84240644 158.88039964 46.42118322 159.44029153 49 160 C49 160.66 49 161.32 49 162 C45.04 162.33 41.08 162.66 37 163 C37 163.66 37 164.32 37 165 C36.360625 165.12375 35.72125 165.2475 35.0625 165.375 C34.381875 165.58125 33.70125 165.7875 33 166 C32.67 166.66 32.34 167.32 32 168 C29.93725586 168.74267578 29.93725586 168.74267578 27.21484375 169.4453125 C26.21638428 169.71335693 25.2179248 169.98140137 24.18920898 170.25756836 C23.11614502 170.5438208 22.04308105 170.83007324 20.9375 171.125 C0.2855636 176.7929649 0.2855636 176.7929649 -15 191 C-17.29010837 195.58021675 -16.72998664 201.66851207 -15.234375 206.4453125 C-7.09064373 222.9048257 15.43114778 229.49319518 31.65625 235.00390625 C34.89769565 236.14274923 34.89769565 236.14274923 38 236 C38.33 236.66 38.66 237.32 39 238 C41.77436866 239.09995033 44.59323143 239.9876508 47.43359375 240.90234375 C50 242 50 242 52 245 C49.12595407 246.12744793 46.25059574 247.25151143 43.375 248.375 C42.56675781 248.69210937 41.75851563 249.00921875 40.92578125 249.3359375 C37.62038866 250.6258468 34.35289606 251.89113746 30.9609375 252.9375 C26.82656183 254.42107544 23.09427847 256.51493292 19.25 258.625 C17.73643047 259.45428347 16.22089532 260.27999263 14.703125 261.1015625 C14.03958008 261.46588379 13.37603516 261.83020508 12.69238281 262.20556641 C11 263 11 263 9 263 C9 263.66 9 264.32 9 265 C9.86496094 265.20753906 10.72992188 265.41507812 11.62109375 265.62890625 C20.55194474 267.81362824 29.44158659 270.14606191 38.3125 272.5625 C39.41585693 272.85519775 40.51921387 273.14789551 41.65600586 273.44946289 C42.69378174 273.7355542 43.73155762 274.02164551 44.80078125 274.31640625 C45.73059814 274.56849854 46.66041504 274.82059082 47.6184082 275.08032227 C50.08913697 276.03442122 51.31002636 276.99401217 53 279 C50.87717331 280.00460531 48.75166979 281.00355602 46.625 282 C45.44164062 282.556875 44.25828125 283.11375 43.0390625 283.6875 C40 285 40 285 38 285 C38 285.66 38 286.32 38 287 C36.20850862 288.13162539 34.36383352 289.17946133 32.5 290.1875 C22.70547809 295.79259068 13.64513373 303.00355647 10.30859375 314.3515625 C9.90388855 317.82485522 9.9327731 321.2609241 10 324.75 C10.04563954 327.17345939 10.04731552 329.57507976 10 332 C9 333 9 333 6.68359375 333.296875 C2.28935796 332.81075867 0.70934542 330.0289046 -2.00390625 326.76171875 C-10.81234732 314.57469755 -13.27716624 302.75059921 -11 288 C-8.71441682 278.25185003 -2.07044053 270.7043341 6 265 C5.11441406 264.59910156 4.22882813 264.19820313 3.31640625 263.78515625 C-45.66574416 241.41456396 -45.66574416 241.41456396 -57 218 C-62.26215659 203.64934192 -62.46220572 189.66258314 -56.96875 175.3046875 C-50.35349399 161.04612894 -38.68145255 151.26360754 -25 144 C-24.34 144 -23.68 144 -23 144 C-23 143.34 -23 142.68 -23 142 C-23.79289429 141.76543091 -23.79289429 141.76543091 -24.60180664 141.52612305 C-30.89735445 139.55855049 -36.61252748 136.8888649 -42.4375 133.8125 C-43.36183838 133.3263623 -44.28617676 132.84022461 -45.23852539 132.33935547 C-51.8210582 128.80221159 -57.45622815 125.02916012 -63 120 C-64.010625 119.2575 -65.02125 118.515 -66.0625 117.75 C-76.9516621 108.4649071 -83.93115476 93.99746537 -86 80 C-87.04086163 65.74633205 -87.11871218 51.48262097 -82 38 C-81.62617187 36.94039062 -81.25234375 35.88078125 -80.8671875 34.7890625 C-78.19572399 27.7654134 -74.57034269 21.93717415 -70 16 C-69.2575 14.96875 -68.515 13.9375 -67.75 12.875 C-51.7699463 -3.83141978 -20.92442506 -13.27425964 0 0 Z M-43.375 14.625 C-45.48706506 17.71186432 -45.61195145 19.3282913 -45 23 C-43.58333333 25.58333333 -43.58333333 25.58333333 -41 27 C-37.50908522 26.93875588 -35.05534314 26.59363052 -32 24.875 C-30.33580687 21.75463788 -31.16920898 19.32316407 -32 16 C-33.04374022 13.95548981 -33.04374022 13.95548981 -35 13 C-38.63031776 12.45931438 -40.32214079 12.53620159 -43.375 14.625 Z " fill="#31D0FD" transform="translate(196,138)"/>
<path d="M0 0 C1.46252197 0.01522705 1.46252197 0.01522705 2.95458984 0.03076172 C19.43347897 0.38523507 32.86234237 5.92235267 44.5625 17.5390625 C59.95004175 33.77649754 64.81455066 55.39472055 64.59960938 77.20092773 C64.07909959 95.27985035 56.94944197 110.49593367 44.25 123.375 C31.64994229 135.02344496 14.49064642 143.96145119 -1.75 149.375 C-3.9375 148.9375 -3.9375 148.9375 -5.75 148.375 C-4.76 148.375 -3.77 148.375 -2.75 148.375 C-2.75 147.715 -2.75 147.055 -2.75 146.375 C-3.389375 146.2925 -4.02875 146.21 -4.6875 146.125 C-7.33093917 145.47762714 -9.28203353 144.70274362 -11.7109375 143.54296875 C-17.13919055 141.09814538 -22.70236404 139.49881613 -28.4375 137.9375 C-29.52240723 137.6381958 -30.60731445 137.3388916 -31.72509766 137.03051758 C-45.93399699 133.16466359 -60.24828704 129.92549179 -74.75 127.375 C-74.255 126.385 -74.255 126.385 -73.75 125.375 C-70.73117174 124.55669833 -67.74161031 123.84820295 -64.6875 123.1875 C-21.60115877 114.31054789 -21.60115877 114.31054789 11.875 88.4375 C14.44651088 83.75083087 15.14779809 79.64814319 14.25 74.375 C13.92 73.715 13.59 73.055 13.25 72.375 C11.12587093 71.69846932 8.97369009 71.10919502 6.8125 70.5625 C-7.71100521 66.61445218 -17.54105543 59.35661556 -26.375 47.125 C-29.74333573 40.38832853 -30.09240071 33.16537676 -30.0625 25.75 C-30.07861328 24.94304687 -30.09472656 24.13609375 -30.11132812 23.3046875 C-30.11630834 17.16906302 -29.33745857 12.15178481 -24.98828125 7.484375 C-24.35277344 7.03578125 -23.71726562 6.5871875 -23.0625 6.125 C-22.43988281 5.66609375 -21.81726563 5.2071875 -21.17578125 4.734375 C-14.02809336 0.72890739 -8.0740046 -0.12104746 0 0 Z M8.875 20 C7.05112622 22.32344013 7.05112622 22.32344013 6.6875 25.375 C7.01503002 28.52127033 7.01503002 28.52127033 9.375 30.8125 C12.16225693 32.62370485 12.16225693 32.62370485 15.375 32.375 C18.27189293 31.5675204 18.27189293 31.5675204 20.1875 29.6875 C21.65109489 26.50202876 21.23928968 24.69618677 20.25 21.375 C19.18654948 19.39470318 19.18654948 19.39470318 17.25 18.375 C13.61968224 17.83431438 11.92785921 17.91120159 8.875 20 Z " fill="#31D0FD" transform="translate(327.75,132.625)"/>
<path d="M0 0 C0.98500488 0.2170459 1.97000977 0.4340918 2.98486328 0.65771484 C18.81813189 4.21623378 34.84424689 8.13419121 49.8125 14.5 C50.84503906 14.93699219 51.87757813 15.37398438 52.94140625 15.82421875 C54.08416016 16.31341797 54.08416016 16.31341797 55.25 16.8125 C55.25 17.4725 55.25 18.1325 55.25 18.8125 C42.91259228 23.99752083 30.33411384 27.15099952 17.30224609 30.10351562 C14.14660667 30.8365165 11.00722768 31.62095994 7.8671875 32.41796875 C3.96814241 33.40196795 0.09572631 34.28558971 -3.875 34.9375 C-7.43339532 35.50631694 -7.43339532 35.50631694 -10.75 36.8125 C-23.42583699 38.22766521 -35.53876448 34.77729499 -47.75 31.8125 C-49.17056171 31.4752132 -50.59113337 31.13796834 -52.01171875 30.80078125 C-55.93564062 29.84500583 -59.84552176 28.84413244 -63.75 27.8125 C-65.0800708 27.46203613 -65.0800708 27.46203613 -66.43701172 27.10449219 C-69.37647538 26.3262389 -72.31360177 25.53973619 -75.25 24.75 C-76.17047119 24.50451416 -77.09094238 24.25902832 -78.03930664 24.00610352 C-83.40840948 22.54580538 -88.57201687 20.85102841 -93.75 18.8125 C-83.83590302 10.71838218 -69.88568325 7.91255995 -57.75 4.8125 C-56.78078613 4.55936035 -55.81157227 4.3062207 -54.81298828 4.04541016 C-35.35895884 -1.03556799 -19.88982932 -4.43571198 0 0 Z " fill="#2FA8FD" transform="translate(269.75,262.1875)"/>
<path d="M0 0 C0 23.76 0 47.52 0 72 C-13.84539679 77.03468974 -19.60101873 78.14425174 -33 73 C-34 72 -34 72 -34.12025452 69.10838318 C-34.11803391 67.81376663 -34.11581329 66.51915009 -34.11352539 65.18530273 C-34.11367142 64.47314606 -34.11381744 63.76098938 -34.1139679 63.0272522 C-34.1132687 60.66266888 -34.10547606 58.29816339 -34.09765625 55.93359375 C-34.09579209 54.29834537 -34.09436818 52.66309643 -34.09336853 51.02784729 C-34.08954318 46.71565215 -34.07971275 42.40349048 -34.06866455 38.09130859 C-34.0584508 33.69434054 -34.05387099 29.29736711 -34.04882812 24.90039062 C-34.03809049 16.26691169 -34.02101387 7.63346 -34 -1 C-31.78966284 -1.51090564 -29.57694126 -2.01150183 -27.36328125 -2.5078125 C-26.13134033 -2.7877002 -24.89939941 -3.06758789 -23.63012695 -3.35595703 C-14.81367022 -4.92013841 -8.50487346 -2.83495782 0 0 Z " fill="#1E4EDB" transform="translate(268,304)"/>
<path d="M0 0 C1.45635864 0.67542847 1.45635864 0.67542847 2.94213867 1.36450195 C3.9241626 1.81784912 4.90618652 2.27119629 5.91796875 2.73828125 C6.66199951 3.08544189 7.40603027 3.43260254 8.17260742 3.7902832 C8.26557859 11.99662288 8.33650876 20.20273989 8.37985611 28.40947723 C8.40066822 32.22084755 8.42886739 36.03185567 8.47436523 39.84301758 C8.51805321 43.52591984 8.54179241 47.20847528 8.55211639 50.89161682 C8.55946692 52.29176792 8.5738204 53.69190157 8.59552765 55.09190369 C8.71429754 63.07454558 8.64521427 69.0292232 4.17260742 75.7902832 C-0.9424711 80.6558457 -5.27366378 81.14358773 -12.10083008 81.0715332 C-17.20613583 80.54491141 -19.82715305 77.89865673 -23.13989258 74.2277832 C-25.89142451 70.25334819 -25.95004898 67.20364234 -25.94091797 62.48291016 C-25.94084244 61.18178787 -25.94076691 59.88066559 -25.94068909 58.54011536 C-25.93558243 57.119598 -25.93036643 55.69908103 -25.92504883 54.27856445 C-25.92318349 52.82553659 -25.92176013 51.37250809 -25.92076111 49.91947937 C-25.91694504 46.09722148 -25.90712251 42.27500165 -25.89605713 38.45275879 C-25.88582345 34.55160029 -25.88125929 30.65043563 -25.8762207 26.74926758 C-25.86549943 19.09625544 -25.84843393 11.44327466 -25.82739258 3.7902832 C-23.59564002 2.7844997 -21.35986503 1.7902522 -19.12036133 0.80200195 C-18.49190308 0.51740112 -17.86344482 0.23280029 -17.21594238 -0.0604248 C-10.56367296 -2.97473166 -6.55678357 -2.805359 0 0 Z " fill="#1E4EDB" transform="translate(259.827392578125,419.209716796875)"/>
<path d="M0 0 C2.31 0.33 4.62 0.66 7 1 C7 1.66 7 2.32 7 3 C7.58523437 3.13535156 8.17046875 3.27070313 8.7734375 3.41015625 C18.16763431 5.76575815 27.03056495 9.39841167 36 13 C36 13.66 36 14.32 36 15 C38.97 15.495 38.97 15.495 42 16 C42 16.66 42 17.32 42 18 C42.94875 18.309375 43.8975 18.61875 44.875 18.9375 C48 20 48 20 50 21 C50 21.66 50 22.32 50 23 C16.5323865 33.7830996 16.5323865 33.7830996 7 35 C7 35.66 7 36.32 7 37 C2.36347645 36.21959505 -1.98109555 34.76873574 -6.4375 33.3125 C-14.88133213 30.59086525 -23.39056069 28.19292345 -31.96459961 25.91723633 C-32.8541333 25.68029053 -33.74366699 25.44334473 -34.66015625 25.19921875 C-35.45043213 24.99127686 -36.24070801 24.78333496 -37.05493164 24.5690918 C-39 24 -39 24 -41 23 C-41 22.34 -41 21.68 -41 21 C-37.88420262 19.21261172 -34.75586797 17.44833567 -31.625 15.6875 C-30.75488281 15.18798828 -29.88476562 14.68847656 -28.98828125 14.17382812 C-23.84501451 11.29740858 -18.95721586 9.18618984 -13.27197266 7.63745117 C-10.19552318 6.77428659 -7.30739931 5.57411365 -4.375 4.3125 C-2.83972656 3.65701172 -2.83972656 3.65701172 -1.2734375 2.98828125 C-0.52320313 2.66214844 0.22703125 2.33601563 1 2 C0.505 1.01 0.505 1.01 0 0 Z " fill="#2FA8FD" transform="translate(246,380)"/>
<path d="M0 0 C0.33 0.99 0.66 1.98 1 3 C-0.175625 3.433125 -0.175625 3.433125 -1.375 3.875 C-4.09671632 4.84912254 -4.09671632 4.84912254 -6 7 C-6.66 6.67 -7.32 6.34 -8 6 C-8.268125 6.639375 -8.53625 7.27875 -8.8125 7.9375 C-10 10 -10 10 -13 11 C-13.2475 11.5775 -13.495 12.155 -13.75 12.75 C-15.39021012 15.70237822 -17.54416761 16.94485407 -20.34375 18.75390625 C-22.28857865 20.07385351 -22.28857865 20.07385351 -24 23 C-24.66 23 -25.32 23 -26 23 C-26 23.99 -26 24.98 -26 26 C-26.99 25.67 -27.98 25.34 -29 25 C-23.44764726 16.4101837 -11.42521099 0 0 0 Z " fill="#3ECBF6" transform="translate(171,283)"/>
<path d="M0 0 C-0.33 0.66 -0.66 1.32 -1 2 C-2.98 2 -4.96 2 -7 2 C-7.66 4.31 -8.32 6.62 -9 9 C-9.66 9 -10.32 9 -11 9 C-11.33 7.68 -11.66 6.36 -12 5 C-12.99 5.495 -12.99 5.495 -14 6 C-13.62095792 9.29075996 -13.62095792 9.29075996 -12 12 C-11.95936168 13.66617115 -11.957279 15.33388095 -12 17 C-17.75 12.375 -17.75 12.375 -20 9 C-19.625 5.8125 -19.625 5.8125 -19 3 C-12.70329848 1.07243831 -6.63542036 -0.20107334 0 0 Z " fill="#204EC9" transform="translate(37,101)"/>
<path d="M0 0 C2.64 0 5.28 0 8 0 C8 0.66 8 1.32 8 2 C12.53916919 1.88203546 17.07810642 1.75780887 21.61694336 1.62768555 C23.16214289 1.58428015 24.70739214 1.54260929 26.25268555 1.50268555 C28.46939096 1.44511801 30.6858448 1.38138576 32.90234375 1.31640625 C33.5971434 1.29969376 34.29194305 1.28298126 35.00779724 1.26576233 C38.28762029 1.43497144 38.28762029 1.43497144 41 0 C42.68608966 -0.07205511 44.37500659 -0.08386068 46.0625 -0.0625 C46.98160156 -0.05347656 47.90070313 -0.04445312 48.84765625 -0.03515625 C49.55792969 -0.02355469 50.26820312 -0.01195312 51 0 C51 0.33 51 0.66 51 1 C34.9654002 5.31700764 15.8267792 6.83091865 0 1 C0 0.67 0 0.34 0 0 Z " fill="#2A50BB" transform="translate(47,131)"/>
<path d="M0 0 C9.24671094 0.88910682 18.11217647 3.37405214 27 6 C27 6.33 27 6.66 27 7 C21.39 7.66 15.78 8.32 10 9 C10.99 7.68 11.98 6.36 13 5 C8.71 4.01 4.42 3.02 0 2 C0 1.34 0 0.68 0 0 Z " fill="#3AC4FA" transform="translate(222,253)"/>
<path d="M0 0 C0.66 0.33 1.32 0.66 2 1 C1.8125 3.375 1.8125 3.375 1 6 C-1.88909849 7.59660706 -3.69058796 8 -7 8 C-7.061875 8.94875 -7.12375 9.8975 -7.1875 10.875 C-7.455625 11.90625 -7.72375 12.9375 -8 14 C-9.65204456 14.70211894 -11.31923769 15.36971413 -13 16 C-13.76129575 18.38901957 -13.76129575 18.38901957 -14 21 C-15.0625 23.3125 -15.0625 23.3125 -16 25 C-17.06294533 22.29834728 -17.0795626 21.20949346 -16.03125 18.44921875 C-11.82910926 10.87035778 -7.21699346 4.90755555 0 0 Z " fill="#264ABB" transform="translate(228,6)"/>
<path d="M0 0 C0.12375 0.639375 0.2475 1.27875 0.375 1.9375 C0.58125 2.618125 0.7875 3.29875 1 4 C1.66 4.33 2.32 4.66 3 5 C2.67 5.66 2.34 6.32 2 7 C1.34 7 0.68 7 0 7 C-0.33 6.34 -0.66 5.68 -1 5 C-1.66 6.65 -2.32 8.3 -3 10 C-3.66 10 -4.32 10 -5 10 C-4.67 10.66 -4.34 11.32 -4 12 C-3.01 12 -2.02 12 -1 12 C-1.99 13.485 -1.99 13.485 -3 15 C-3.66 15 -4.32 15 -5 15 C-5 16.32 -5 17.64 -5 19 C-6.32 18.67 -7.64 18.34 -9 18 C-9 18.66 -9 19.32 -9 20 C-10.98 20.99 -10.98 20.99 -13 22 C-11.29816715 16.88424944 -8.32246469 12.64984185 -5.375 8.1875 C-4.859375 7.39923828 -4.34375 6.61097656 -3.8125 5.79882812 C-2.54558583 3.8632648 -1.27467036 1.93046058 0 0 Z " fill="#2247C0" transform="translate(314,59)"/>
<path d="M0 0 C0 0.99 0 1.98 0 3 C0.99 3.66 1.98 4.32 3 5 C-5.03571429 4.0625 -5.03571429 4.0625 -9 3 C-8.52949219 3.53109375 -8.05898438 4.0621875 -7.57421875 4.609375 C-6.95160156 5.31578125 -6.32898438 6.0221875 -5.6875 6.75 C-5.07261719 7.44609375 -4.45773437 8.1421875 -3.82421875 8.859375 C-2.12685266 10.85114506 -0.54522191 12.88898915 1 15 C-0.65 14.67 -2.3 14.34 -4 14 C-4 13.34 -4 12.68 -4 12 C-4.99 12 -5.98 12 -7 12 C-7 11.01 -7 10.02 -7 9 C-7.99 8.67 -8.98 8.34 -10 8 C-11.25 6.125 -11.25 6.125 -12 4 C-11.67 3.01 -11.34 2.02 -11 1 C-7.26513121 0.4254048 -3.78706732 0 0 0 Z " fill="#254DC3" transform="translate(406,128)"/>
<path d="M0 0 C0.66 0.33 1.32 0.66 2 1 C1.47599609 1.92232422 1.47599609 1.92232422 0.94140625 2.86328125 C0.48636719 3.67152344 0.03132813 4.47976562 -0.4375 5.3125 C-0.88996094 6.11300781 -1.34242188 6.91351563 -1.80859375 7.73828125 C-6.34215016 16.34460638 -3.99365235 26.35660805 -1.55859375 35.28515625 C-1 38 -1 38 -2 41 C-5.9043425 34.30684143 -6.34261067 26.98323319 -6.3125 19.4375 C-6.33666992 18.22030273 -6.33666992 18.22030273 -6.36132812 16.97851562 C-6.36627838 10.84514541 -5.47596588 5.84277564 -1.3125 1.0625 C-0.6628125 0.5365625 -0.6628125 0.5365625 0 0 Z " fill="#3BB9F9" transform="translate(304,139)"/>
<path d="M0 0 C6.20463219 5.42451762 8.22744915 14.29994714 8.9375 22.1875 C9.17584563 27.83880036 8.58715182 32.58501145 7 38 C6.2016939 35.19924989 5.88939264 32.75581307 5.9375 29.84765625 C5.94523437 29.07099609 5.95296875 28.29433594 5.9609375 27.49414062 C5.98691643 25.87695212 6.01295779 24.25976461 6.0390625 22.64257812 C6.07910999 18.61446847 6.01704155 14.93309037 5 11 C4.34 11 3.68 11 3 11 C2.67 9.68 2.34 8.36 2 7 C1.34 7 0.68 7 0 7 C0 6.34 0 5.68 0 5 C-0.66 4.67 -1.32 4.34 -2 4 C-1.01 4 -0.02 4 1 4 C0.67 2.68 0.34 1.36 0 0 Z " fill="#284CBC" transform="translate(284,17)"/>
<path d="M0 0 C1.59521484 0.23203125 1.59521484 0.23203125 3.22265625 0.46875 C5.9375 1.5 5.9375 1.5 7.30859375 4.09375 C7.51613281 4.8878125 7.72367188 5.681875 7.9375 6.5 C4.0625 4.625 4.0625 4.625 2.9375 3.5 C-1.17079899 3.13744065 -1.17079899 3.13744065 -4.9375 4.5625 C-6.64446395 7.50227124 -6.25049766 10.17870803 -6.0625 13.5 C-7.0525 13.17 -8.0425 12.84 -9.0625 12.5 C-9.14371924 10.89667209 -9.20179134 9.29215974 -9.25 7.6875 C-9.28480469 6.79417969 -9.31960937 5.90085938 -9.35546875 4.98046875 C-9.0625 2.5 -9.0625 2.5 -7.9296875 0.64453125 C-5.12874123 -1.07236678 -3.19123506 -0.52734869 0 0 Z " fill="#3ECCF3" transform="translate(158.0625,148.5)"/>
<path d="M0 0 C-2.25533655 2.25533655 -3.97358129 2.57560841 -6.98535156 3.375 C-10.63557635 4.50740129 -13.97622375 6.27244522 -17.375 8 C-18.45974609 8.53367187 -18.45974609 8.53367187 -19.56640625 9.078125 C-23.4459005 10.80965304 -23.4459005 10.80965304 -26 14 C-24.68 13.67 -23.36 13.34 -22 13 C-21.67 13.99 -21.34 14.98 -21 16 C-23.64 15.34 -26.28 14.68 -29 14 C-29 13.34 -29 12.68 -29 12 C-25.819126 10.19637916 -22.62922709 8.4093338 -19.4375 6.625 C-18.54224609 6.11710937 -17.64699219 5.60921875 -16.72460938 5.0859375 C-3.99888973 -1.99944487 -3.99888973 -1.99944487 0 0 Z " fill="#2AB2FA" transform="translate(234,389)"/>
<path d="M0 0 C0.66 0 1.32 0 2 0 C1.67 1.65 1.34 3.3 1 5 C0.01 5 -0.98 5 -2 5 C-2.04125 5.721875 -2.0825 6.44375 -2.125 7.1875 C-3.38280288 11.23043784 -5.67046292 12.43348183 -9 15 C-9.33 15.66 -9.66 16.32 -10 17 C-10.66 17 -11.32 17 -12 17 C-10.7026033 12.15780359 -8.86854282 9.31680533 -5.4375 5.6875 C-4.63183594 4.82511719 -3.82617188 3.96273438 -2.99609375 3.07421875 C-1 1 -1 1 0 0 Z " fill="#42CBEE" transform="translate(199,405)"/>
<path d="M0 0 C0 0.33 0 0.66 0 1 C-6.64556962 0.06962025 -6.64556962 0.06962025 -9.625 -0.515625 C-14.05370142 -1.15122567 -18.40594575 -1.26269628 -22.875 -1.3125 C-23.73480469 -1.34150391 -24.59460938 -1.37050781 -25.48046875 -1.40039062 C-30.9458542 -1.45429807 -34.56099822 -0.69128316 -39.21533203 2.23364258 C-41.50617336 3.21735679 -42.693483 2.80597945 -45 2 C-43.730447 1.35165346 -42.45930294 0.70642185 -41.1875 0.0625 C-40.47980469 -0.29714844 -39.77210938 -0.65679687 -39.04296875 -1.02734375 C-28.17749007 -6.20039191 -11.04846528 -3.91591175 0 0 Z " fill="#3FC1FE" transform="translate(351,136)"/>
<path d="M0 0 C0 0.33 0 0.66 0 1 C-0.6798999 1.01458252 -1.3597998 1.02916504 -2.06030273 1.04418945 C-5.18656282 1.1193642 -8.31183482 1.21579232 -11.4375 1.3125 C-12.50677734 1.33505859 -13.57605469 1.35761719 -14.67773438 1.38085938 C-21.36749371 1.60589715 -26.76190372 2.55330188 -33 5 C-32.67 3.68 -32.34 2.36 -32 1 C-21.50133862 -0.83726574 -10.52824136 -2.46114733 0 0 Z " fill="#1463DB" transform="translate(341,132)"/>
<path d="M0 0 C-0.61875 0.061875 -1.2375 0.12375 -1.875 0.1875 C-2.57625 0.455625 -3.2775 0.72375 -4 1 C-4.66 2.65 -5.32 4.3 -6 6 C-11.61 6 -17.22 6 -23 6 C-19.31193524 3.54129016 -15.72194714 2.54948117 -11.5 1.3125 C-10.34177734 0.95575195 -10.34177734 0.95575195 -9.16015625 0.59179688 C-8.41636719 0.37201172 -7.67257812 0.15222656 -6.90625 -0.07421875 C-6.22884766 -0.27619873 -5.55144531 -0.47817871 -4.85351562 -0.6862793 C-3 -1 -3 -1 0 0 Z " fill="#41C9EF" transform="translate(299,248)"/>
<path d="M0 0 C2.6015625 0.0234375 2.6015625 0.0234375 5.625 0.375 C6.62789062 0.48585937 7.63078125 0.59671875 8.6640625 0.7109375 C9.82035156 0.85402344 9.82035156 0.85402344 11 1 C11 1.33 11 1.66 11 2 C7.37 2 3.74 2 0 2 C0.62841973 5.9714169 0.62841973 5.9714169 3 8 C2.9765625 10.1640625 2.9765625 10.1640625 2.625 12.625 C2.51414062 13.44226562 2.40328125 14.25953125 2.2890625 15.1015625 C2.19367187 15.72804688 2.09828125 16.35453125 2 17 C-1.38473289 13.61526711 -1.93768807 9.93467891 -2.25 5.25 C-2 2 -2 2 0 0 Z " fill="#274DBA" transform="translate(3,33)"/>
<path d="M0 0 C0 3.80479947 -1.25229697 5.34351214 -3.25 8.5625 C-6.10482125 13.30323347 -8.33818748 17.92327399 -10.17578125 23.13671875 C-11 25 -11 25 -13 26 C-15.3329866 26.04022391 -17.66706666 26.04320247 -20 26 C-20 25.67 -20 25.34 -20 25 C-16.04 24.505 -16.04 24.505 -12 24 C-12 22.35 -12 20.7 -12 19 C-11.34 19 -10.68 19 -10 19 C-9.9175 18.13375 -9.835 17.2675 -9.75 16.375 C-8.8821959 12.46988157 -7.33240103 10.22420143 -5 7 C-4.46375 6.0925 -3.9275 5.185 -3.375 4.25 C-2 2 -2 2 0 0 Z " fill="#165ECD" transform="translate(125,153)"/>
<path d="M0 0 C3.89608498 1.48904175 7.59097018 3.24378713 11.3125 5.125 C12.38113281 5.66382813 13.44976562 6.20265625 14.55078125 6.7578125 C15.76314453 7.37269531 15.76314453 7.37269531 17 8 C13.2421875 9.0625 13.2421875 9.0625 11.0625 8.5 C8.4562936 7.86819239 6.57326442 8.35668389 4 9 C2.47700477 6.06279492 1.19899698 3.0831351 0 0 Z " fill="#3EC9F0" transform="translate(192,358)"/>
<path d="M0 0 C0 0.66 0 1.32 0 2 C-1.19625 2.556875 -2.3925 3.11375 -3.625 3.6875 C-6.52122229 5.12020571 -8.93625066 6.6311856 -11.375 8.75 C-14 11 -14 11 -16 11 C-16 10.34 -16 9.68 -16 9 C-17.32 8.34 -18.64 7.68 -20 7 C-18.86820313 6.57847656 -17.73640625 6.15695313 -16.5703125 5.72265625 C-15.08852006 5.16932869 -13.60675041 4.61594011 -12.125 4.0625 C-11.37863281 3.78470703 -10.63226563 3.50691406 -9.86328125 3.22070312 C-1.24887048 0 -1.24887048 0 0 0 Z M-18 11 C-16 12 -16 12 -16 12 Z " fill="#244DC3" transform="translate(64,91)"/>
<path d="M0 0 C1 1 1 1 1.0625 4.5625 C1.041875 5.696875 1.02125 6.83125 1 8 C0.01 7.67 -0.98 7.34 -2 7 C-2 6.01 -2 5.02 -2 4 C-5.3 3.67 -8.6 3.34 -12 3 C-12 2.01 -12 1.02 -12 0 C-7.6761871 -0.92653134 -4.31673282 -1.00389135 0 0 Z " fill="#2449C5" transform="translate(498,34)"/>
<path d="M0 0 C-4.24740335 3.45101522 -8.61105071 6.73279209 -13 10 C-13.3125 7.25 -13.3125 7.25 -13 4 C-8.4303174 -0.44942779 -6.15327513 -1.20390166 0 0 Z " fill="#3ECCF1" transform="translate(195,316)"/>
<path d="M0 0 C2.475 0.495 2.475 0.495 5 1 C5 1.66 5 2.32 5 3 C6.60875 2.87625 6.60875 2.87625 8.25 2.75 C12 3 12 3 13.875 4.90625 C16.4258946 7.41963144 18.29648452 7.92773441 21.75 8.75 C22.73484375 8.99234375 23.7196875 9.2346875 24.734375 9.484375 C25.48203125 9.65453125 26.2296875 9.8246875 27 10 C27 10.66 27 11.32 27 12 C19.98568958 10.65109415 13.67927688 8.63078242 7.3125 5.4375 C6.70067871 5.13255615 6.08885742 4.8276123 5.45849609 4.51342773 C1.1354612 2.27092241 1.1354612 2.27092241 0 0 Z " fill="#294CB9" transform="translate(273,165)"/>
<path d="M0 0 C3.14480675 2.94259079 5.49230126 6.00060534 7.8125 9.625 C8.43769531 10.58664063 9.06289062 11.54828125 9.70703125 12.5390625 C10.13371094 13.35117188 10.56039062 14.16328125 11 15 C10.67 15.66 10.34 16.32 10 17 C9.01 16.34 8.02 15.68 7 15 C7 14.01 7 13.02 7 12 C6.34 12 5.68 12 5 12 C5 11.34 5 10.68 5 10 C3.05416667 8.91041667 3.05416667 8.91041667 0.9375 8.625 C0.298125 8.41875 -0.34125 8.2125 -1 8 C-1.33 7.01 -1.66 6.02 -2 5 C-1.34 4.01 -0.68 3.02 0 2 C0 1.34 0 0.68 0 0 Z " fill="#2049CD" transform="translate(194,74)"/>
<path d="M0 0 C1 3 1 3 -0.0390625 5.70703125 C-2.91673513 11.34188283 -5.64426635 16.38804673 -10 21 C-10.33 19.68 -10.66 18.36 -11 17 C-10.01 17 -9.02 17 -8 17 C-8 15.68 -8 14.36 -8 13 C-7.34 13 -6.68 13 -6 13 C-6.33 11.68 -6.66 10.36 -7 9 C-6.0409375 8.38125 -6.0409375 8.38125 -5.0625 7.75 C-2.79009069 5.82189513 -2.39803561 4.88575819 -2 2 C-1.34 2 -0.68 2 0 2 C0 1.34 0 0.68 0 0 Z " fill="#244CBE" transform="translate(497,42)"/>
<path d="M0 0 C2.5625 1.5625 2.5625 1.5625 4 3 C3.34 2.835 2.68 2.67 2 2.5 C-5.39400197 1.26766634 -9.98159976 2.04384574 -16.703125 5.22265625 C-19.2869236 6.0971051 -20.47541849 5.92066161 -23 5 C-7.42484152 -2.64356995 -7.42484152 -2.64356995 0 0 Z " fill="#105BCF" transform="translate(257,418)"/>
<path d="M0 0 C-2.97 1.32 -5.94 2.64 -9 4 C-7.2984375 4.680625 -7.2984375 4.680625 -5.5625 5.375 C-2 7 -2 7 -1 9 C-2.79236067 8.52343588 -4.58386897 8.04366502 -6.375 7.5625 C-7.37273437 7.29566406 -8.37046875 7.02882813 -9.3984375 6.75390625 C-12 6 -12 6 -14 5 C-13.67 4.01 -13.34 3.02 -13 2 C-10.8203125 1.015625 -10.8203125 1.015625 -8.125 0.25 C-7.24070312 -0.01296875 -6.35640625 -0.2759375 -5.4453125 -0.546875 C-3 -1 -3 -1 0 0 Z " fill="#39C2FE" transform="translate(267,378)"/>
<path d="M0 0 C4.82596069 3.15422267 9.57557408 6.28919117 14 10 C13.01 10.33 12.02 10.66 11 11 C11 10.34 11 9.68 11 9 C10.0925 9.2475 9.185 9.495 8.25 9.75 C5 10 5 10 2.6875 8.4375 C0.71465846 5.58784 0.3110806 3.42188655 0 0 Z " fill="#39CBF0" transform="translate(167,228)"/>
<path d="M0 0 C6.625 0.75 6.625 0.75 10 3 C10 3.66 10 4.32 10 5 C11.32 5.33 12.64 5.66 14 6 C14 6.66 14 7.32 14 8 C14.763125 8.268125 15.52625 8.53625 16.3125 8.8125 C18.87380884 9.94424112 20.19692938 10.91223401 22 13 C21.67 13.99 21.34 14.98 21 16 C20.40574219 15.41992188 19.81148438 14.83984375 19.19921875 14.2421875 C13.25590098 8.64086469 7.34384391 4.56022851 0 1 C0 0.67 0 0.34 0 0 Z " fill="#115FD2" transform="translate(352,136)"/>
<path d="M0 0 C1 3 1 3 0.03125 5.26953125 C-3.39325028 10.95664779 -6.70841388 14.97839455 -12 19 C-11.8125 16.1875 -11.8125 16.1875 -11 13 C-8.625 11.375 -8.625 11.375 -6 10 C-3.6964236 7.44961184 -2.60375249 5.38101396 -2 2 C-1.34 2 -0.68 2 0 2 C0 1.34 0 0.68 0 0 Z " fill="#204CC1" transform="translate(289,55)"/>
<path d="M0 0 C0.99 0.33 1.98 0.66 3 1 C-4.78476908 13.81009552 -4.78476908 13.81009552 -9 17 C-11.3125 16.8125 -11.3125 16.8125 -13 16 C-10.94766315 13.7522025 -9.99332739 12.9977758 -7 12 C-6.67 11.34 -6.34 10.68 -6 10 C-5.34 10 -4.68 10 -4 10 C-4.33 9.01 -4.66 8.02 -5 7 C-4.01 7 -3.02 7 -2 7 C-2 5.68 -2 4.36 -2 3 C-1.34 3 -0.68 3 0 3 C0 2.01 0 1.02 0 0 Z " fill="#4AC9EB" transform="translate(311,454)"/>
<path d="M0 0 C2.31 0.33 4.62 0.66 7 1 C7 11.89 7 22.78 7 34 C6.67 34 6.34 34 6 34 C5.99589111 33.10692139 5.99178223 32.21384277 5.98754883 31.29370117 C5.96056643 27.97745641 5.91148823 24.66306719 5.84741211 21.34741211 C5.82422606 19.91295767 5.80983487 18.47833285 5.80444336 17.04370117 C5.79515651 14.97987644 5.75418592 12.91873292 5.70703125 10.85546875 C5.68346558 8.99378052 5.68346558 8.99378052 5.65942383 7.09448242 C5.31562456 3.79756256 5.31562456 3.79756256 2.45581055 2.1340332 C1.64539307 1.75980225 0.83497559 1.38557129 0 1 C0 0.67 0 0.34 0 0 Z " fill="#284EBD" transform="translate(228,76)"/>
<path d="M0 0 C0.66 0.66 1.32 1.32 2 2 C1.67 2.66 1.34 3.32 1 4 C0.01 4 -0.98 4 -2 4 C-2.33 5.32 -2.66 6.64 -3 8 C-3.66 7.34 -4.32 6.68 -5 6 C-4.67 5.67 -4.34 5.34 -4 5 C-7.63 5.33 -11.26 5.66 -15 6 C-11.32227066 3.24170299 -9.53020686 2.38255171 -5.25 1.3125 C-4.26515625 1.06113281 -3.2803125 0.80976562 -2.265625 0.55078125 C-1.51796875 0.36902344 -0.7703125 0.18726562 0 0 Z " fill="#234AC6" transform="translate(245,0)"/>
<path d="M0 0 C4.95621512 0.49562151 8.70281375 1.44215104 13 4 C13.33 4.66 13.66 5.32 14 6 C10.04 7.32 6.08 8.64 2 10 C1.67 9.34 1.34 8.68 1 8 C1.78375 7.71125 2.5675 7.4225 3.375 7.125 C6.09671632 6.15087746 6.09671632 6.15087746 8 4 C5.36 3.01 2.72 2.02 0 1 C0 0.67 0 0.34 0 0 Z " fill="#3AC6FE" transform="translate(234,377)"/>
<path d="M0 0 C4.875 1.875 4.875 1.875 6 3 C6.04063832 4.66617115 6.042721 6.33388095 6 8 C4.02 8.99 4.02 8.99 2 10 C1.34 6.7 0.68 3.4 0 0 Z " fill="#244DC5" transform="translate(426,158)"/>
<path d="M0 0 C-1.12148437 0.70576172 -1.12148437 0.70576172 -2.265625 1.42578125 C-3.74289063 2.35970703 -3.74289063 2.35970703 -5.25 3.3125 C-6.22453125 3.92738281 -7.1990625 4.54226562 -8.203125 5.17578125 C-10.54733713 6.70475759 -12.78784032 8.28820977 -15 10 C-15 7 -15 7 -12.6875 4.4375 C-9.08112874 1.16660513 -4.94280591 -2.47140295 0 0 Z " fill="#1060D5" transform="translate(147,138)"/>
<path d="M0 0 C2.97 0.495 2.97 0.495 6 1 C6.8125 3.0625 6.8125 3.0625 7 6 C5.58973707 8.54689275 3.86023965 10.76642506 2 13 C1.34 11.68 0.68 10.36 0 9 C0.66 8.34 1.32 7.68 2 7 C2.99 7 3.98 7 5 7 C3.75023244 3.34683329 3.32901247 2.21934164 0 0 Z " fill="#284EBE" transform="translate(476,103)"/>
<path d="M0 0 C0.33 0.99 0.66 1.98 1 3 C-0.09758507 3.84198307 -1.20335317 4.67330671 -2.3125 5.5 C-2.92738281 5.9640625 -3.54226562 6.428125 -4.17578125 6.90625 C-6 8 -6 8 -9 8 C-9.33 9.32 -9.66 10.64 -10 12 C-10.3125 9.75 -10.3125 9.75 -10 7 C-7.01297569 4.09831924 -3.60547173 2.06026956 0 0 Z " fill="#284CC8" transform="translate(78,154)"/>
<path d="M0 0 C-0.78246094 0.20496094 -1.56492188 0.40992188 -2.37109375 0.62109375 C-3.38300781 0.89050781 -4.39492187 1.15992188 -5.4375 1.4375 C-6.44683594 1.70433594 -7.45617187 1.97117187 -8.49609375 2.24609375 C-10.91752001 2.75978077 -10.91752001 2.75978077 -12 4 C-13.66617115 4.04063832 -15.33388095 4.042721 -17 4 C-17.33 4.66 -17.66 5.32 -18 6 C-18 4.68 -18 3.36 -18 2 C-15.75256955 1.46818825 -13.50192898 0.94992874 -11.25 0.4375 C-9.99703125 0.14746094 -8.7440625 -0.14257812 -7.453125 -0.44140625 C-4.40526252 -0.93444283 -2.82358172 -1.07666879 0 0 Z " fill="#115ED1" transform="translate(252,301)"/>
<path d="M0 0 C2.97 0 5.94 0 9 0 C9 0.66 9 1.32 9 2 C13.455 2.99 13.455 2.99 18 4 C18 4.66 18 5.32 18 6 C11.68878497 4.9007105 5.93661416 3.41862058 0 1 C0 0.67 0 0.34 0 0 Z " fill="#294EBD" transform="translate(78,171)"/>
<path d="M0 0 C1.33332095 2.6666419 0.67102033 4.16680303 0 7 C-1.32 7.33 -2.64 7.66 -4 8 C-4 9.32 -4 10.64 -4 12 C-4.99 12.33 -5.98 12.66 -7 13 C-7 8.40848794 -6.31497074 7.66817876 -3.5 4.25 C-2.8503125 3.45078125 -2.200625 2.6515625 -1.53125 1.828125 C-1.0259375 1.22484375 -0.520625 0.6215625 0 0 Z " fill="#2149C1" transform="translate(323,47)"/>
<path d="M0 0 C4.2829452 0.5479083 6.85135641 2.02432804 10.3125 4.5625 C11.19550781 5.20316406 12.07851562 5.84382813 12.98828125 6.50390625 C13.65214844 6.99761719 14.31601563 7.49132813 15 8 C12.04063954 9.47968023 10.13239866 8.84835797 7 8 C5.9375 6.0625 5.9375 6.0625 5 4 C2.46229997 2.71745356 2.46229997 2.71745356 0 2 C0 1.34 0 0.68 0 0 Z " fill="#2349BF" transform="translate(153,31)"/>
<path d="M0 0 C1.32 0.33 2.64 0.66 4 1 C2.3811004 2.03048037 0.75467511 3.04914678 -0.875 4.0625 C-1.77992188 4.63097656 -2.68484375 5.19945312 -3.6171875 5.78515625 C-4.40351563 6.18605469 -5.18984375 6.58695313 -6 7 C-6.66 6.67 -7.32 6.34 -8 6 C-7.67 5.34 -7.34 4.68 -7 4 C-6.34 4 -5.68 4 -5 4 C-5.33 3.01 -5.66 2.02 -6 1 C-3.03 1.495 -3.03 1.495 0 2 C0 1.34 0 0.68 0 0 Z " fill="#47C9F1" transform="translate(183,193)"/>
<path d="M0 0 C0.33 0.99 0.66 1.98 1 3 C-0.3974187 5.7948374 -2.62325693 6.46439701 -5.27734375 7.9140625 C-7.42704369 9.26920214 -8.68806052 10.83915851 -10 13 C-11.32 12.67 -12.64 12.34 -14 12 C-12.86111328 11.07767578 -12.86111328 11.07767578 -11.69921875 10.13671875 C-10.70535156 9.32847656 -9.71148437 8.52023438 -8.6875 7.6875 C-7.70136719 6.88699219 -6.71523437 6.08648437 -5.69921875 5.26171875 C-3.68397834 3.57311644 -1.80511991 1.90369301 0 0 Z " fill="#2A49B8" transform="translate(93,141)"/>
<path d="M0 0 C2.97 0.33 5.94 0.66 9 1 C5.35883227 4.33773709 1.71392758 4.97864902 -3 6 C-2.67 5.34 -2.34 4.68 -2 4 C-1.34 4 -0.68 4 0 4 C0 2.68 0 1.36 0 0 Z " fill="#214EC9" transform="translate(460,75)"/>
<path d="M0 0 C1.65 0.33 3.3 0.66 5 1 C2.68116787 5.50884026 -0.06451569 7.93906776 -4 11 C-4.33 10.01 -4.66 9.02 -5 8 C-3.68 7.67 -2.36 7.34 -1 7 C-0.67 4.69 -0.34 2.38 0 0 Z " fill="#47CAEC" transform="translate(352,363)"/>
<path d="M0 0 C2.94721162 2.74395564 5.19168608 5.38337216 7 9 C6.67 9.66 6.34 10.32 6 11 C5.34 10.67 4.68 10.34 4 10 C4 9.34 4 8.68 4 8 C3.360625 7.896875 2.72125 7.79375 2.0625 7.6875 C1.381875 7.460625 0.70125 7.23375 0 7 C-1.04449911 3.86650268 -0.93423645 3.01031744 0 0 Z " fill="#2649C5" transform="translate(186,61)"/>
<path d="M0 0 C0.33 0.66 0.66 1.32 1 2 C-1.21928194 4.90802461 -2.92969143 6.95312762 -6 9 C-6.99 8.67 -7.98 8.34 -9 8 C-8.34 8 -7.68 8 -7 8 C-7 7.01 -7 6.02 -7 5 C-6.34 5 -5.68 5 -5 5 C-5 4.34 -5 3.68 -5 3 C-2.5 1.375 -2.5 1.375 0 0 Z " fill="#294EBD" transform="translate(265,490)"/>
<path d="M0 0 C0.66 0.33 1.32 0.66 2 1 C0.83207458 7.48847457 -1.73732098 10.15852574 -7 14 C-7.66 13.67 -8.32 13.34 -9 13 C-8.51789063 12.48050781 -8.03578125 11.96101563 -7.5390625 11.42578125 C-2.8123208 6.30492579 -2.8123208 6.30492579 0 0 Z " fill="#49C6E9" transform="translate(322,341)"/>
<path d="M0 0 C-1.92989218 1.19982444 -3.86919228 2.38452818 -5.8125 3.5625 C-7.43091797 4.55443359 -7.43091797 4.55443359 -9.08203125 5.56640625 C-12 7 -12 7 -15 6 C-13.68 5.67 -12.36 5.34 -11 5 C-11 4.34 -11 3.68 -11 3 C-9.68 3 -8.36 3 -7 3 C-7 2.01 -7 1.02 -7 0 C-3.98968256 -0.93423645 -3.13349732 -1.04449911 0 0 Z " fill="#274BB6" transform="translate(468,124)"/>
<path d="M0 0 C0.66 0 1.32 0 2 0 C1.88655624 2.1464753 1.75893655 4.29220592 1.625 6.4375 C1.52058594 8.22994141 1.52058594 8.22994141 1.4140625 10.05859375 C1.27742188 11.02925781 1.14078125 11.99992187 1 13 C0.01 13.495 0.01 13.495 -1 14 C-1.02685938 11.85423363 -1.04633088 9.70837355 -1.0625 7.5625 C-1.07410156 6.36753906 -1.08570313 5.17257812 -1.09765625 3.94140625 C-1 1 -1 1 0 0 Z " fill="#47C9EE" transform="translate(298,452)"/>
<path d="M0 0 C0.66 0.33 1.32 0.66 2 1 C-2.34242429 5.34242429 -6.13551546 5.7444669 -12 6 C-9.48617788 4.32411859 -7.17052712 3.05969689 -4.4375 1.8125 C-3.65246094 1.44769531 -2.86742187 1.08289063 -2.05859375 0.70703125 C-1.37925781 0.47371094 -0.69992187 0.24039063 0 0 Z " fill="#44CAEE" transform="translate(317,239)"/>
<path d="M0 0 C0.33 0.99 0.66 1.98 1 3 C0.01 3.33 -0.98 3.66 -2 4 C-2.68486725 5.32407669 -3.34870203 6.65909241 -4 8 C-5.29470975 9.37086915 -6.62150897 10.71340837 -8 12 C-8.99 11.67 -9.98 11.34 -11 11 C-9.6696875 9.948125 -9.6696875 9.948125 -8.3125 8.875 C-5.09624045 6.20878959 -2.58763104 3.27259219 0 0 Z " fill="#2349BC" transform="translate(291,95)"/>
<path d="M0 0 C0.66 0.33 1.32 0.66 2 1 C1.01 2.485 1.01 2.485 0 4 C-0.66 4 -1.32 4 -2 4 C-2 5.32 -2 6.64 -2 8 C-3.32 7.67 -4.64 7.34 -6 7 C-6 7.66 -6 8.32 -6 9 C-7.98 9.99 -7.98 9.99 -10 11 C-9.01437243 7.68470727 -8.34552581 6.25050621 -5.5 4.1875 C-3 3 -3 3 -1 3 C-0.67 2.01 -0.34 1.02 0 0 Z " fill="#204BCB" transform="translate(311,70)"/>
<path d="M0 0 C0.66 0 1.32 0 2 0 C2.66 0.99 3.32 1.98 4 3 C6.58380177 3.25030977 6.58380177 3.25030977 9 3 C9.33 4.98 9.66 6.96 10 9 C6.55729549 7.46990911 3.81074178 5.5068778 1 3 C0.67 2.01 0.34 1.02 0 0 Z " fill="#244DBF" transform="translate(218,67)"/>
<path d="M0 0 C2.64 0 5.28 0 8 0 C4.4912812 3.09592835 1.50802601 4.74194623 -3 6 C-2.67 4.68 -2.34 3.36 -2 2 C-1.34 2 -0.68 2 0 2 C0 1.34 0 0.68 0 0 Z " fill="#45CBF1" transform="translate(322,387)"/>
<path d="M0 0 C0.66 0.33 1.32 0.66 2 1 C1.67 2.65 1.34 4.3 1 6 C-1.31 6.66 -3.62 7.32 -6 8 C-5.65120368 4.74456771 -4.97866739 3.98126893 -2.4375 1.75 C-1.633125 1.1725 -0.82875 0.595 0 0 Z " fill="#2448C9" transform="translate(228,6)"/>
<path d="M0 0 C0.99 0.33 1.98 0.66 3 1 C2.04663979 2.31611677 1.08714226 3.62778961 0.125 4.9375 C-0.40867188 5.66839844 -0.94234375 6.39929688 -1.4921875 7.15234375 C-3 9 -3 9 -5 10 C-5 8.35 -5 6.7 -5 5 C-4.01 5.33 -3.02 5.66 -2 6 C-2.33 5.01 -2.66 4.02 -3 3 C-2.01 2.67 -1.02 2.34 0 2 C0 1.34 0 0.68 0 0 Z " fill="#43C8F1" transform="translate(214,434)"/>
<path d="M0 0 C0.78375 0.185625 1.5675 0.37125 2.375 0.5625 C4.97089775 1.25962266 4.97089775 1.25962266 7 0 C7 1.32 7 2.64 7 4 C9.97 4.495 9.97 4.495 13 5 C13.33 5.99 13.66 6.98 14 8 C8.76481294 6.56032356 4.36973991 4.18303389 0 1 C0 0.67 0 0.34 0 0 Z " fill="#43CCEF" transform="translate(142,264)"/>
<path d="M0 0 C2.05078125 0.03255208 4.1015625 0.06510417 6.15234375 0.09765625 C0.65422495 3.76306879 -6.31972582 4.44123154 -12.84765625 4.09765625 C-12.84765625 3.76765625 -12.84765625 3.43765625 -12.84765625 3.09765625 C-12.13738281 2.96488281 -11.42710937 2.83210938 -10.6953125 2.6953125 C-9.77621094 2.51871094 -8.85710937 2.34210938 -7.91015625 2.16015625 C-6.53537109 1.89912109 -6.53537109 1.89912109 -5.1328125 1.6328125 C-2.83347056 1.09433413 -2.25681537 0.119282 0 0 Z " fill="#105FD2" transform="translate(260.84765625,254.90234375)"/>
<path d="M0 0 C0 0.66 0 1.32 0 2 C-3.79267192 2.9360342 -6.93674565 2.98276252 -10.8125 2.5625 C-11.78832031 2.46066406 -12.76414062 2.35882813 -13.76953125 2.25390625 C-14.87361328 2.12822266 -14.87361328 2.12822266 -16 2 C-16 1.67 -16 1.34 -16 1 C-10.59255982 0.22750855 -5.46137814 -0.09752461 0 0 Z " fill="#264CBB" transform="translate(100,33)"/>
<path d="M0 0 C6.75 1.875 6.75 1.875 9 3 C9 3.66 9 4.32 9 5 C9.99 5 10.98 5 12 5 C12 5.66 12 6.32 12 7 C7.39104317 5.68315519 3.85859765 3.84801255 0 1 C0 0.67 0 0.34 0 0 Z " fill="#4DC9EB" transform="translate(171,386)"/>
<path d="M0 0 C3.3 0 6.6 0 10 0 C1.29411765 4.35294118 1.29411765 4.35294118 -3.4375 3.625 C-3.953125 3.41875 -4.46875 3.2125 -5 3 C-3.35 2.67 -1.7 2.34 0 2 C0 1.34 0 0.68 0 0 Z " fill="#43CAEF" transform="translate(218,305)"/>
<path d="M0 0 C0.33 0.66 0.66 1.32 1 2 C-0.14453125 4.34765625 -0.14453125 4.34765625 -1.8125 7.0625 C-2.35519531 7.96097656 -2.89789063 8.85945312 -3.45703125 9.78515625 C-5 12 -5 12 -7 13 C-7 12.01 -7 11.02 -7 10 C-6.34 10 -5.68 10 -5 10 C-5 9.01 -5 8.02 -5 7 C-4.34 7 -3.68 7 -3 7 C-2.814375 5.824375 -2.814375 5.824375 -2.625 4.625 C-2 2 -2 2 0 0 Z " fill="#50C9E8" transform="translate(386,233)"/>
<path d="M0 0 C-1.56020867 0.65134925 -3.12328579 1.29582964 -4.6875 1.9375 C-5.55761719 2.29714844 -6.42773438 2.65679687 -7.32421875 3.02734375 C-9.88179265 3.9570312 -12.3221323 4.54162625 -15 5 C-12.86699672 2.63442627 -11.04050601 1.37032472 -8.0625 0.25 C-7.39347656 -0.01296875 -6.72445313 -0.2759375 -6.03515625 -0.546875 C-3.68352509 -1.07046274 -2.26382477 -0.74954377 0 0 Z " fill="#3CB4FB" transform="translate(321,134)"/>
<path d="M0 0 C6.0546875 0.390625 6.0546875 0.390625 8 1 C9.2578125 3.046875 9.2578125 3.046875 10 5 C8.51800098 4.55090939 7.03944764 4.09043436 5.5625 3.625 C4.73878906 3.36976562 3.91507813 3.11453125 3.06640625 2.8515625 C1 2 1 2 0 0 Z " fill="#294CC1" transform="translate(27,74)"/>
<path d="M0 0 C0.66 0 1.32 0 2 0 C1.67 4.29 1.34 8.58 1 13 C-1.11295256 9.83057116 -1.25250929 9.00370047 -1.1875 5.375 C-1.17783203 4.18003906 -1.17783203 4.18003906 -1.16796875 2.9609375 C-1 1 -1 1 0 0 Z " fill="#47C7EA" transform="translate(158,204)"/>
<path d="M0 0 C2 2 2 2 2 5 C4.64 5.33 7.28 5.66 10 6 C10 6.33 10 6.66 10 7 C8.52093108 7.02689216 7.04172517 7.04634621 5.5625 7.0625 C4.32693359 7.07990234 4.32693359 7.07990234 3.06640625 7.09765625 C1 7 1 7 0 6 C-0.04080783 4.00041636 -0.04254356 1.99954746 0 0 Z " fill="#235AC4" transform="translate(387,172)"/>
<path d="M0 0 C0.33 0 0.66 0 1 0 C1.99 4.62 2.98 9.24 4 14 C3.34 13.67 2.68 13.34 2 13 C2 12.34 2 11.68 2 11 C1.01 10.67 0.02 10.34 -1 10 C-0.67 6.7 -0.34 3.4 0 0 Z " fill="#115BD1" transform="translate(297,162)"/>
<path d="M0 0 C2.38672669 2.96283313 4.7353371 5.94270509 7 9 C6.67 9.66 6.34 10.32 6 11 C5.01 10.34 4.02 9.68 3 9 C3 8.01 3 7.02 3 6 C2.34 6 1.68 6 1 6 C1 5.34 1 4.68 1 4 C0.34 3.67 -0.32 3.34 -1 3 C-0.67 2.01 -0.34 1.02 0 0 Z " fill="#2548B9" transform="translate(198,80)"/>
<path d="M0 0 C0.99 0.66 1.98 1.32 3 2 C1.42274653 2.70133599 -0.16211333 3.385583 -1.75 4.0625 C-2.63171875 4.44535156 -3.5134375 4.82820313 -4.421875 5.22265625 C-7.15256309 6.04600008 -8.36901347 5.9773992 -11 5 C-9.2375228 4.10828827 -7.46466209 3.23707344 -5.6875 2.375 C-4.20830078 1.64410156 -4.20830078 1.64410156 -2.69921875 0.8984375 C-1.80847656 0.60195313 -0.91773438 0.30546875 0 0 Z " fill="#1362D6" transform="translate(245,418)"/>
<path d="M0 0 C0.66 0.99 1.32 1.98 2 3 C1.690625 3.5775 1.38125 4.155 1.0625 4.75 C0.07416636 6.84294184 -0.5168613 8.74535275 -1 11 C-1.66 11 -2.32 11 -3 11 C-2.44894091 7.0507432 -1.61064629 3.65079826 0 0 Z " fill="#3ABEFB" transform="translate(116,171)"/>
<path d="M0 0 C0.66 0.33 1.32 0.66 2 1 C0.02 1.99 0.02 1.99 -2 3 C-2 3.66 -2 4.32 -2 5 C-4.90600261 6.25664978 -6.79604584 7 -10 7 C-8.70982586 6.01886757 -7.41780894 5.04015801 -6.125 4.0625 C-5.04605469 3.24458984 -5.04605469 3.24458984 -3.9453125 2.41015625 C-2 1 -2 1 0 0 Z " fill="#3CBCFE" transform="translate(144,139)"/>
<path d="M0 0 C1.32 0 2.64 0 4 0 C4.268125 0.78375 4.53625 1.5675 4.8125 2.375 C5.84814432 5.28114923 5.84814432 5.28114923 9 7 C8.67 7.99 8.34 8.98 8 10 C6.66370254 8.52351062 5.33103329 7.0437367 4 5.5625 C3.2575 4.73878906 2.515 3.91507813 1.75 3.06640625 C0 1 0 1 0 0 Z " fill="#2F4DBB" transform="translate(10,59)"/>
<path d="M0 0 C2.32472205 2.85306797 3.7508258 5.54074837 5 9 C2.03 8.505 2.03 8.505 -1 8 C-0.67 5.36 -0.34 2.72 0 0 Z " fill="#3FCAF4" transform="translate(179,342)"/>
<path d="M0 0 C2 2 2 2 2 6 C-0.5 8.25 -0.5 8.25 -3 10 C-2.49287967 6.28111761 -1.88391785 3.26545761 0 0 Z " fill="#42CBF1" transform="translate(140,312)"/>
<path d="M0 0 C0.33 0.99 0.66 1.98 1 3 C0.01 4.485 0.01 4.485 -1 6 C-1.66 6 -2.32 6 -3 6 C-3 6.99 -3 7.98 -3 9 C-3.99 8.67 -4.98 8.34 -6 8 C-4.02 5.36 -2.04 2.72 0 0 Z " fill="#48C8EA" transform="translate(148,300)"/>
<path d="M0 0 C0.556875 0.33 1.11375 0.66 1.6875 1 C4.30284522 2.1309601 6.1806646 2.15662974 9 2 C5.99382731 5.00617269 3.17618402 4.59585316 -1 5 C-0.67 3.35 -0.34 1.7 0 0 Z " fill="#1D54C0" transform="translate(202,171)"/>
<path d="M0 0 C0.66 0.33 1.32 0.66 2 1 C2 2.98 2 4.96 2 7 C0.02 7.66 -1.96 8.32 -4 9 C-3.525625 8.443125 -3.05125 7.88625 -2.5625 7.3125 C-0.87604004 4.81653926 -0.41046893 2.9553763 0 0 Z " fill="#3FCDE8" transform="translate(165,156)"/>
<path d="M0 0 C1.11375 0.4640625 1.11375 0.4640625 2.25 0.9375 C4.51519234 1.81268795 6.64476948 2.45044621 9 3 C9.99 3.33 10.98 3.66 12 4 C11.34 4 10.68 4 10 4 C10 4.99 10 5.98 10 7 C5.56541027 5.6062718 3.12621626 3.39417765 0 0 Z " fill="#294BC0" transform="translate(25,118)"/>
<path d="M0 0 C0.66 0.99 1.32 1.98 2 3 C2.66 3.66 3.32 4.32 4 5 C2.3125 5.8125 2.3125 5.8125 0 6 C-2.75 3.5625 -2.75 3.5625 -5 1 C-2 0 -2 0 0 0 Z " fill="#3CCCF7" transform="translate(284,370)"/>
<path d="M0 0 C3.3 0 6.6 0 10 0 C10.66 1.65 11.32 3.3 12 5 C8.125 3.125 8.125 3.125 7 2 C4.32941149 1.85884839 1.67567762 1.95752893 -1 2 C-0.67 1.34 -0.34 0.68 0 0 Z " fill="#4DCCED" transform="translate(154,150)"/>
<path d="M0 0 C1 3 1 3 0.00390625 5.26171875 C-0.47175781 6.06222656 -0.94742187 6.86273438 -1.4375 7.6875 C-1.91058594 8.49574219 -2.38367188 9.30398437 -2.87109375 10.13671875 C-3.24363281 10.75160156 -3.61617188 11.36648437 -4 12 C-4.625 10.125 -4.625 10.125 -5 8 C-4.34 7.34 -3.68 6.68 -3 6 C-2.3574765 3.93125966 -2.3574765 3.93125966 -2 2 C-1.34 2 -0.68 2 0 2 C0 1.34 0 0.68 0 0 Z " fill="#264CB1" transform="translate(289,55)"/>
<path d="M0 0 C-0.33 1.32 -0.66 2.64 -1 4 C-3.64 4.66 -6.28 5.32 -9 6 C-3.15384615 0 -3.15384615 0 0 0 Z " fill="#2949BC" transform="translate(342,33)"/>
<path d="M0 0 C3.50281042 4.67041389 3.5344992 6.41399038 4 12 C3.67 11.34 3.34 10.68 3 10 C2.34 10 1.68 10 1 10 C0.67 6.7 0.34 3.4 0 0 Z " fill="#46BFF5" transform="translate(386,176)"/>
<path d="M0 0 C-0.3125 1.9375 -0.3125 1.9375 -1 4 C-1.99 4.33 -2.98 4.66 -4 5 C-3.67 5.66 -3.34 6.32 -3 7 C-4.32 6.34 -5.64 5.68 -7 5 C-2.25 0 -2.25 0 0 0 Z " fill="#204ECC" transform="translate(76,162)"/>
<path d="M0 0 C2.0625 0.4375 2.0625 0.4375 4 1 C3.2884375 1.5878125 3.2884375 1.5878125 2.5625 2.1875 C0.64820367 4.40808374 0.38733012 6.13375709 0 9 C-0.66 9 -1.32 9 -2 9 C-1.125 1.125 -1.125 1.125 0 0 Z " fill="#50C7EC" transform="translate(335,151)"/>
<path d="M0 0 C1.31611677 0.95336021 2.62778961 1.91285774 3.9375 2.875 C4.66839844 3.40867188 5.39929688 3.94234375 6.15234375 4.4921875 C8 6 8 6 9 8 C6.36 7.34 3.72 6.68 1 6 C0.67 4.02 0.34 2.04 0 0 Z " fill="#284CBC" transform="translate(407,143)"/>
<path d="M0 0 C0.66 0.33 1.32 0.66 2 1 C1.67 1.33 1.34 1.66 1 2 C2.32 3.32 3.64 4.64 5 6 C1.5625 5.1875 1.5625 5.1875 -2 4 C-2.33 3.01 -2.66 2.02 -3 1 C-2.01 0.67 -1.02 0.34 0 0 Z " fill="#39BCFD" transform="translate(256,414)"/>
<path d="M0 0 C0.66 0 1.32 0 2 0 C2.33 0.99 2.66 1.98 3 3 C-0.82989106 4.80230168 -3.78121808 5.19622241 -8 5 C-8 4.67 -8 4.34 -8 4 C-4.535 3.505 -4.535 3.505 -1 3 C-0.67 2.01 -0.34 1.02 0 0 Z " fill="#0F5AD2" transform="translate(256,376)"/>
<path d="M0 0 C1.32 0 2.64 0 4 0 C3.25 5.75 3.25 5.75 1 8 C0.67 5.36 0.34 2.72 0 0 Z " fill="#42CAF5" transform="translate(360,350)"/>
<path d="M0 0 C2.97 0 5.94 0 9 0 C5.31265242 2.45823172 2.30300029 3.01242616 -2 4 C-1.34 2.68 -0.68 1.36 0 0 Z " fill="#4DC7EB" transform="translate(204,309)"/>
<path d="M0 0 C5.875 3.75 5.875 3.75 7 6 C6.01 6.33 5.02 6.66 4 7 C4 6.01 4 5.02 4 4 C2.35 4 0.7 4 -1 4 C-0.67 2.68 -0.34 1.36 0 0 Z " fill="#45C7E9" transform="translate(339,287)"/>
<path d="M0 0 C4.455 0.99 4.455 0.99 9 2 C9 2.66 9 3.32 9 4 C7.35 4.33 5.7 4.66 4 5 C4 4.01 4 3.02 4 2 C2.68 2 1.36 2 0 2 C0 1.34 0 0.68 0 0 Z " fill="#40C8F1" transform="translate(209,249)"/>
<path d="M0 0 C2.86724686 0.57344937 3.8614515 0.8614515 6 3 C3 5 3 5 0.8125 4.625 C0.214375 4.41875 -0.38375 4.2125 -1 4 C-0.67 2.68 -0.34 1.36 0 0 Z " fill="#39CDF0" transform="translate(322,194)"/>
<path d="M0 0 C3.26460973 1.80412643 4.88929795 2.83394693 7 6 C4.03 5.505 4.03 5.505 1 5 C0.67 3.35 0.34 1.7 0 0 Z " fill="#3DC3FE" transform="translate(364,144)"/>
<path d="M0 0 C0.66 0.33 1.32 0.66 2 1 C0.875 3 0.875 3 -1 5 C-4.1875 5.25 -4.1875 5.25 -7 5 C-4.702779 3.25728062 -2.40133271 1.60088848 0 0 Z " fill="#244CBF" transform="translate(71,86)"/>
<path d="M0 0 C0.33 0 0.66 0 1 0 C1 1.65 1 3.3 1 5 C-0.98 5.99 -0.98 5.99 -3 7 C-3 7.66 -3 8.32 -3 9 C-3.66 8.67 -4.32 8.34 -5 8 C-4.19185349 6.66402348 -3.37836819 5.331275 -2.5625 4 C-2.11003906 3.2575 -1.65757812 2.515 -1.19140625 1.75 C-0.79824219 1.1725 -0.40507812 0.595 0 0 Z " fill="#234ABB" transform="translate(300,81)"/>
<path d="M0 0 C0.66 0 1.32 0 2 0 C2 0.66 2 1.32 2 2 C2.66 2.33 3.32 2.66 4 3 C2.35 4.32 0.7 5.64 -1 7 C-1.33 6.34 -1.66 5.68 -2 5 C-1.34 5 -0.68 5 0 5 C-0.2784375 4.0409375 -0.2784375 4.0409375 -0.5625 3.0625 C-0.7790625 2.0415625 -0.7790625 2.0415625 -1 1 C-0.67 0.67 -0.34 0.34 0 0 Z " fill="#224AC4" transform="translate(477,66)"/>
<path d="M0 0 C0.66 0 1.32 0 2 0 C2 2 2 2 -0.25 4.5625 C-2.86855367 6.88349075 -3.7582031 7.38350444 -7 8 C-6.02133662 6.85373678 -5.04205413 5.70800212 -4.0625 4.5625 C-3.51722656 3.92441406 -2.97195313 3.28632812 -2.41015625 2.62890625 C-1.63204305 1.73008851 -0.84063472 0.84063472 0 0 Z " fill="#2447B3" transform="translate(331,39)"/>
<path d="M0 0 C0.66 0.33 1.32 0.66 2 1 C-3.75 6 -3.75 6 -6 6 C-4.98545548 3.4636387 -4.3146444 2.20648539 -2 0.6875 C-1.34 0.460625 -0.68 0.23375 0 0 Z " fill="#4EC8EB" transform="translate(342,377)"/>
<path d="M0 0 C3.63 0.66 7.26 1.32 11 2 C11 2.66 11 3.32 11 4 C7.1936543 3.32829194 3.64793184 2.27253436 0 1 C0 0.67 0 0.34 0 0 Z " fill="#0E64D4" transform="translate(256,301)"/>
<path d="M0 0 C1.32 0.33 2.64 0.66 4 1 C4 1.66 4 2.32 4 3 C4.66 3 5.32 3 6 3 C5.67 4.32 5.34 5.64 5 7 C0 1.125 0 1.125 0 0 Z " fill="#48CBED" transform="translate(121,244)"/>
<path d="M0 0 C2.31 0 4.62 0 7 0 C4.37801226 2.15377564 2.35595828 3.40072174 -1 4 C-0.67 2.68 -0.34 1.36 0 0 Z " fill="#254EC1" transform="translate(419,169)"/>
<path d="M0 0 C1.25541557 3.76624671 0.37061958 5.37188934 -1 9 C-1.66 9 -2.32 9 -3 9 C-3.33 7.68 -3.66 6.36 -4 5 C-3.01 5 -2.02 5 -1 5 C-0.67 3.35 -0.34 1.7 0 0 Z " fill="#47C8EA" transform="translate(316,443)"/>
<path d="M0 0 C2.89932357 2.39509338 3.50168276 4.31245243 4 8 C3.01 8 2.02 8 1 8 C0.67 5.36 0.34 2.72 0 0 Z " fill="#3ABCFC" transform="translate(379,160)"/>
<path d="M0 0 C3.96 1.98 3.96 1.98 8 4 C4.37673261 5.2077558 3.35853631 4.54311128 0 3 C0 2.01 0 1.02 0 0 Z " fill="#2B48C4" transform="translate(424,84)"/>
</svg>
